<?xml version="1.0" encoding="utf-8"?>
<!-- Generator: Adobe Illustrator 21.1.0, SVG Export Plug-In . SVG Version: 6.00 Build 0)  -->
<svg version="1.1" id="Layer_1" xmlns="http://www.w3.org/2000/svg" xmlns:xlink="http://www.w3.org/1999/xlink" x="0px" y="0px"
	 viewBox="0 0 352.8 165" style="enable-background:new 0 0 352.8 165;" xml:space="preserve">
<style type="text/css">
	.st0{fill:#FFFFFF;}
</style>
<title>garage_logo_white</title>
<desc>Created with Sketch.</desc>
<polygon class="st0" points="33.6,0 33.6,50.1 85,50.1 85,74.2 0,74.2 0,0 "/>
<path class="st0" d="M160.7,20.6l-10.4,22.8h20.9L160.7,20.6z M180.8,63.9h-39.6l-4.6,10.3h-34L138.3,0h46.5l38,74.2h-37.3
	L180.8,63.9z"/>
<g>
	<path class="st0" d="M274.6,52.8h17.7c22.8,0,24.8-10.4,24.8-15.7v-0.6c0-5.3-2.1-15.1-24.8-15.1h-17.7V52.8z M241,0h56.4
		c42.6,0,54.6,16.7,54.6,35.1v3.1c0,17.6-9.8,36-54.6,36H241V0z"/>
	<path class="st0" d="M175.7,121.6c1.2-0.8,1.8-2.3,1.8-4.4c0-2-0.6-3.4-1.9-4.1c-1.3-0.7-2.8-1.1-4.7-1.1h-13v10.7H171
		C173,122.8,174.6,122.4,175.7,121.6"/>
	<path class="st0" d="M172.3,129.6h-14.4v11.6h14.2c0.9,0,1.8-0.1,2.6-0.3c0.8-0.2,1.5-0.5,2.1-1c0.6-0.5,1.1-1,1.4-1.7
		c0.4-0.7,0.5-1.6,0.5-2.6c0-2-0.6-3.6-1.8-4.5C175.8,130.1,174.3,129.6,172.3,129.6"/>
	<path class="st0" d="M53.4,121.6c1.2-0.8,1.8-2.3,1.8-4.4c0-2-0.6-3.4-1.9-4.1c-1.3-0.7-2.8-1.1-4.7-1.1h-13v10.7h13.1
		C50.6,122.8,52.2,122.4,53.4,121.6"/>
	<path class="st0" d="M50,129.6H35.6v11.6h14.2c0.9,0,1.8-0.1,2.6-0.3c0.8-0.2,1.5-0.5,2.1-1c0.6-0.5,1.1-1,1.4-1.7
		c0.4-0.7,0.5-1.6,0.5-2.6c0-2-0.6-3.6-1.8-4.5C53.5,130.1,51.9,129.6,50,129.6"/>
	<path class="st0" d="M326.3,112.3h-26.4v10.5h21.4v6.9h-21.4V141h26.3v7.1h-34.1v-42.8h34.2V112.3z M255.6,148.1h-31.5v-42.8h7.8
		V141h23.7V148.1z M185.8,141.5c-0.7,1.5-1.6,2.8-2.9,3.8c-1.3,1-2.7,1.7-4.5,2.2c-1.7,0.5-3.7,0.7-5.8,0.7h-22.2v-42.8h21
		c1.9,0,3.6,0.2,5.3,0.7c1.7,0.5,3.2,1.2,4.5,2.1c1.3,1,2.4,2.2,3.1,3.7c0.8,1.5,1.2,3.4,1.2,5.5c0,2.4-0.6,4.3-1.8,5.7
		c-1.2,1.4-2.9,2.4-5,3.1c2.5,0.6,4.5,1.7,5.9,3.2c1.5,1.5,2.2,3.7,2.2,6.6C186.8,138.1,186.5,140,185.8,141.5 M110.2,148.1h-7.8
		v-42.8h7.8V148.1z M63.5,141.5c-0.7,1.5-1.6,2.8-2.9,3.8c-1.3,1-2.7,1.7-4.5,2.2c-1.7,0.5-3.7,0.7-5.8,0.7H28v-42.8h21
		c1.9,0,3.6,0.2,5.3,0.7c1.7,0.5,3.2,1.2,4.5,2.1c1.3,1,2.4,2.2,3.1,3.7c0.8,1.5,1.2,3.4,1.2,5.5c0,2.4-0.6,4.3-1.8,5.7
		c-1.2,1.4-2.9,2.4-5,3.1c2.5,0.6,4.5,1.7,5.9,3.2c1.5,1.5,2.2,3.7,2.2,6.6C64.5,138.1,64.1,140,63.5,141.5 M0,165h352.8V88.6H0V165
		z"/>
</g>
</svg>
