<?xml version="1.0" encoding="utf-8"?>
<!-- Generator: Adobe Illustrator 21.1.0, SVG Export Plug-In . SVG Version: 6.00 Build 0)  -->
<svg version="1.1" id="Layer_1" xmlns="http://www.w3.org/2000/svg" xmlns:xlink="http://www.w3.org/1999/xlink" x="0px" y="0px"
	 viewBox="0 0 601 738.7" style="enable-background:new 0 0 601 738.7;" xml:space="preserve">
<style type="text/css">
	.st0{fill:#1E1E1C;}
	.st1{fill:#FFFFFF;}
</style>
<g>
	<path class="st0" d="M165,195.5c-16.1,15.9-35.8,23.8-59.1,23.8c-23.4,0-43.1-8-59.1-24.1S22.7,159.7,22.7,137V29.9L0,0h99.8
		L76.9,29.9v106.3c0,16.2,5.1,29.9,15.3,41.1c10.2,11.2,23.3,16.9,39.2,16.9h3.4V29.9L112.2,0H212l-22.9,29.9v107.3
		C189.1,160.2,181.1,179.6,165,195.5z"/>
</g>
<g>
	<g>
		<path class="st0" d="M363.6,402c-5.5,13.6-13,25.4-22.4,35.4c-9.4,10-20.5,17.8-33.3,23.5c-12.8,5.7-26.5,8.5-41,8.5
			c-14.6,0-28.3-2.7-41.1-8c-12.8-5.3-23.9-12.7-33.4-22.3c-9.4-9.5-16.9-20.9-22.4-34.2c-5.5-13.3-8.2-28-8.2-44s2.7-31,8.2-44.9
			c5.5-13.9,13-26,22.4-36.3c9.4-10.3,20.5-18.4,33.3-24.3c12.7-5.9,26.4-8.9,41.1-8.9c14.7,0,28.4,2.8,41.2,8.4
			c12.8,5.6,23.9,13.3,33.3,23.2c9.4,9.9,16.9,21.6,22.4,35.2c5.5,13.6,8.2,28.4,8.2,44.4C371.8,373.6,369.1,388.4,363.6,402z
			 M315.3,350.1c-4.6-13.5-11.2-25.5-20-36c-8.7-10.5-19.4-19-32.1-25.5c-12.7-6.5-27-9.7-43-9.7c-6.1,14.6-9.2,29.5-9.2,44.8
			s2.3,29.7,6.9,43.3c4.6,13.6,11.3,25.7,20,36.3c8.7,10.6,19.4,19.2,31.9,25.6c12.6,6.5,27,9.7,43.2,9.7
			c6.1-15.3,9.1-30.5,9.1-45.6C322.2,377.9,319.9,363.6,315.3,350.1z"/>
	</g>
	<g>
		<path class="st0" d="M545.2,473.1l-73.6-97.3v60.2l22.9,29.9h-99.8l22.7-29.9V280l-22.7-29.9h99.8L471.5,280v79.6l68.2-79.8
			l-22.4-29.6h79.8l-82.4,97.1l55.1,73.1l28.8,20.8L545.2,473.1z"/>
	</g>
</g>
<g>
	<path class="st0" d="M211.3,519.4h42.1l-22.9,29.9v155.9l22.9,29.9h-99.7l22.7-29.9V591.3l-62,98.5L50.5,590v115.2l22.9,29.9h-72
		l22.7-29.9V553.9l-17-17l51.6-30.8l72.2,114.7l45-71.8l-22.3-29.6H211.3"/>
	<path class="st0" d="M422.4,700c-4,7.8-9.5,14.5-16.3,20.2c-6.8,5.7-14.9,10.2-24,13.5c-9.2,3.3-21.4,5-36.7,5
		c-15.3,0-30.4-6.2-45.3-18.6c-14.9-12.4-22.4-27.2-22.4-44.4s3.6-29.7,10.7-37.5c7.1-7.8,13.3-13.2,18.4-16.1
		c-9-7.1-15.1-14.8-18.1-23.1c-3-8.3-4.5-15.9-4.5-22.9c0-6.9,1.8-14.2,5.5-21.9c3.7-7.6,8.7-14.3,14.9-20s13.7-10.2,22.1-13.5
		c8.5-3.3,20-5,34.5-5c14.5,0,28.8,6.1,42.9,18.4c14,12.3,21.1,27.2,21.1,44.6c0,9.1-2.1,17.8-6.3,26.1c-4.2,8.3-9.8,15.3-16.9,21.1
		c17.6,12.9,26.5,29.2,26.5,48.7C428.4,683.9,426.4,692.3,422.4,700z M373,669.5c-12.8-9.8-23.2-17.1-31.4-21.7
		c-8.2-4.6-15.1-8.5-20.8-11.8c-1.7,4.7-2.5,10-2.5,15.9s2.3,12.6,6.9,19.8c4.6,7.2,12.2,15.2,22.8,24.1
		c10.6,8.9,24.8,15.3,42.6,19.2c1.1-3.7,1.6-7.2,1.6-10.7C392.2,691,385.8,679.4,373,669.5z M381,583.1
		c-4.4-6.7-11.5-14.3-21.3-22.8c-9.8-8.5-22.3-14.6-37.3-18.2c-1.6,4.3-2.4,8.6-2.5,12.9c0,21.2,9.3,35.9,27.8,44.2
		s31.1,14.1,37.8,17.3c1.4-4.3,2.1-9.3,2.1-14.9S385.4,589.8,381,583.1z"/>
</g>
<path class="st0" d="M537.2,680.9c-15.9,0-28.8,12.2-28.8,28.1c0,15.9,12.9,28.1,28.8,28.1c16.6,0,28.8-12.2,28.8-28.1
	C566,693.1,553.8,680.9,537.2,680.9z"/>
<path class="st0" d="M527.5,504.2c-21.7,0-42.7,3.7-48.1,4.7v55.8v5.2l35.8-37.2l0,0c8.8-8.6,22.8-8.5,31.5,0.2
	c8.8,8.8,8.8,23,0,31.8l0,0l-2.2,2.3c-0.2,0.3-0.4,0.5-0.7,0.8l-40,41.5l5.4,9.5l1.3,2.2c7.6,13.8,23.7,41.4,23.7,41.4l11.7-38.1
	c7.4-6.1,23.7-18.4,31.4-26.1c15.9-14.9,23.7-29.1,23.7-46.3C601,525.8,576.3,504.2,527.5,504.2z"/>
<path class="st1" d="M544.5,567l-37.4,38.8l-3.3,3.3l0.1,0.2l40-41.5C544.1,567.5,544.3,567.2,544.5,567z"/>
</svg>
